<svg xmlns="http://www.w3.org/2000/svg" width="323.561" height="120" viewBox="0 0 323.561 120"><defs><style>.a{fill:#d01b28;}</style></defs><g transform="translate(0)"><path class="a" d="M0,86.02C0,63.14,17.48,55.3,29.64,55.3s27.08,6.08,27.08,32.84v2.64H17.68c.88,9.72,6.32,13.48,13.72,13.48,6.96,0,13.48-3.44,17.48-7.08l6.84,10.6c-6.84,5.84-15.36,8.84-25.64,8.84C14.72,116.62,0,108.78,0,86.02Zm40.8-5.76c-.88-8.28-4.64-12.24-11.28-12.24-5.52,0-10.28,3.64-11.6,12.28H40.8Z" transform="translate(0 -33.18)"/><path class="a" d="M163.24,36.24H153.4V23.32h9.84V19.24C163.24,9.4,166.2,0,183.68,0A100.6,100.6,0,0,1,194.4.76v12.4a28.593,28.593,0,0,0-5.2-.44c-4.32,0-8.28.76-8.28,7.08v3.52h12.84V36.24H180.92v46H163.24Z" transform="translate(-92.04)"/><g transform="translate(105.24 22.08)"><path d="M263.1,107.52l7.08-9.96a32.74,32.74,0,0,0,20.44,7.64c5.52,0,9.4-1.88,9.4-5.76,0-4.08-3.08-5.64-11.16-7.08-11.16-2-23.12-4.64-23.12-18.48,0-11.84,9.72-18.68,22.88-18.68,12.04,0,19.36,3.08,25.88,8.28l-6.96,10.04c-5.96-4.08-11.84-6.4-17.36-6.4-5.08,0-7.96,2-7.96,5.2,0,3.52,3.2,4.96,10.52,6.32,11.6,2,23.88,4.64,23.88,18,0,14.24-12.4,19.88-25.96,19.88C277.7,116.56,269.06,112.6,263.1,107.52Z" transform="translate(-263.1 -55.2)"/><path d="M399.6,137.66l3.76-13.72a42.431,42.431,0,0,0,11.16,1.56c3.88,0,6.08-1.44,7.52-5.08l1.12-2.88L400.6,58.3h18.36l12.92,38.24h.24L445.16,58.3H462.4l-24.76,65.12c-3.96,10.16-9.4,16.36-21.24,16.36A57.516,57.516,0,0,1,399.6,137.66Z" transform="translate(-345 -57.06)"/><path d="M611.06,78.06V97.02a33.673,33.673,0,0,1,17.68-9.44V72.42c0-12.16-7.2-17.12-17.12-17.12-10.28,0-16.8,5.84-20.32,10.52V56.5H573.5v58.92h17.8V75.86c3.96-3.44,8.04-5.88,12.8-5.88C609.06,69.98,611.06,72.74,611.06,78.06Z" transform="translate(-449.34 -55.26)"/></g><g transform="translate(274.84 76.28)"><path class="a" d="M711.86,192.14a6.348,6.348,0,0,0-3.96-1.28,5.875,5.875,0,0,0-6.16,5.84,5.523,5.523,0,0,0,1.96,4.32,2.822,2.822,0,0,0-1.44,2.2,2.184,2.184,0,0,0,.96,1.92,4.292,4.292,0,0,0-2.52,3.68c0,1.56.96,4.16,7.4,4.16,4.4,0,7.24-1.76,7.24-4.52,0-3.68-4.6-4.04-6.12-4.12-.24,0-2.44-.2-2.68-.24-2.36-.24-2.36-.64-2.36-.96,0-.56.64-.96,1.16-1.2a7.219,7.219,0,0,0,2.64.52c3.56,0,6.16-2.44,6.16-5.8a5.721,5.721,0,0,0-1-3.32,6.84,6.84,0,0,1,2.4-.6l.4-.04v-2l-.48.08A10.709,10.709,0,0,0,711.86,192.14Zm.32,4.56c0,2.4-1.72,4-4.28,4s-4.28-1.6-4.28-4a4,4,0,0,1,4.28-4.08A3.961,3.961,0,0,1,712.18,196.7Zm-5.92,9.28c.2.04,2.28.2,2.56.2h0c3.24.24,4.6.96,4.6,2.4,0,1.6-2.12,2.68-5.28,2.68-2.52,0-5.52-.44-5.52-2.44,0-1.2,1.04-2.36,2.76-2.96C705.66,205.9,705.94,205.94,706.26,205.98Z" transform="translate(-695.26 -190.7)"/><path class="a" d="M688.74,224.1a1.566,1.566,0,0,0-1.64,1.6,1.534,1.534,0,0,0,1.64,1.56,1.581,1.581,0,1,0,0-3.16Z" transform="translate(-687.1 -210.74)"/><path class="a" d="M753.28,191.184a6.927,6.927,0,0,0-5.96,2.76v-2.48H745.4v16.08h1.92v-10.68c1.36-2.6,3.4-3.96,5.72-3.84l.88.04.36-1.84Z" transform="translate(-722.08 -190.984)"/></g><path class="a" d="M713.54,161a32.638,32.638,0,0,1-47.84,44.36A32.638,32.638,0,1,0,713.54,161Z" transform="translate(-399.42 -96.6)"/><g transform="translate(108.88 2.96)"><path d="M275.04,7.9h1.08l2.84,7.32h-1.08l-.8-2.2H274l-.8,2.2h-1Zm1.76,4.28-1.2-3.4h-.04l-1.24,3.4Z" transform="translate(-272.2 -7.7)"/><path d="M293.92,12.9a13.682,13.682,0,0,1-.72,2.72,21.487,21.487,0,0,1-1.16,2.6h-.92l-1.92-5.28h.96l1.44,4.4c.16-.32.28-.64.44-1a9.244,9.244,0,0,0,.4-1.12,9.827,9.827,0,0,0,.32-1.16c.08-.4.16-.76.24-1.12h.92Z" transform="translate(-282.4 -10.7)"/><path d="M305.48,14.1a.782.782,0,0,0-.36-.6,1.471,1.471,0,0,0-.8-.2,1.752,1.752,0,0,0-.84.16.658.658,0,0,0-.32.6.671.671,0,0,0,.24.56.964.964,0,0,0,.6.16h.84v.76h-.8a1.194,1.194,0,0,0-.8.24.845.845,0,0,0-.24.64.808.808,0,0,0,.36.72,1.714,1.714,0,0,0,.96.2,1.948,1.948,0,0,0,.48-.04,1.2,1.2,0,0,0,.4-.16,1.08,1.08,0,0,0,.28-.32,1.6,1.6,0,0,0,.16-.52h.88a1.942,1.942,0,0,1-.76,1.4,2.849,2.849,0,0,1-1.64.4,4.9,4.9,0,0,1-.76-.08,2.038,2.038,0,0,1-.68-.28,1.379,1.379,0,0,1-.48-.48,1.423,1.423,0,0,1-.2-.76,1.193,1.193,0,0,1,.96-1.24v-.04a.974.974,0,0,1-.56-.4,1.279,1.279,0,0,1-.2-.72,1.315,1.315,0,0,1,.16-.68,1.705,1.705,0,0,1,.44-.48,3.19,3.19,0,0,1,.64-.32,2.579,2.579,0,0,1,.8-.12,2.509,2.509,0,0,1,1.4.36,1.615,1.615,0,0,1,.64,1.2h-.8Z" transform="translate(-290.08 -10.46)"/><path d="M316.94,15.04a2.42,2.42,0,0,1-.96-.16,2.221,2.221,0,0,1-.68-.44,2.286,2.286,0,0,1-.44-.64,2.339,2.339,0,0,1-.16-.76,1.75,1.75,0,0,1,.36-1.16,2.033,2.033,0,0,1,1-.68v-.04a1.584,1.584,0,0,1-1.12-1.52,2.151,2.151,0,0,1,.16-.88,1.828,1.828,0,0,1,.44-.64,1.915,1.915,0,0,1,.68-.4,3.12,3.12,0,0,1,.88-.12,4.407,4.407,0,0,1,.72.08,3.379,3.379,0,0,1,.68.2v.68a3.379,3.379,0,0,0-.68-.2,4.407,4.407,0,0,0-.72-.08,1.426,1.426,0,0,0-.92.32,1.3,1.3,0,0,0-.36.96,1.033,1.033,0,0,0,.36.84,1.7,1.7,0,0,0,1.12.32h.96v.76h-1a1.882,1.882,0,0,0-1.28.36,1.429,1.429,0,0,0-.36,1.04,1.264,1.264,0,0,0,.48,1.08,1.919,1.919,0,0,0,1.32.28,1.253,1.253,0,0,1,.96.32,1.611,1.611,0,0,1,.28.96,2.111,2.111,0,0,1-.04.52,1.381,1.381,0,0,1-.12.52h-.84a3.325,3.325,0,0,0,.08-.52c0-.16.04-.28.04-.36a.88.88,0,0,0-.04-.32.346.346,0,0,0-.12-.24.363.363,0,0,0-.28-.12A2.052,2.052,0,0,0,316.94,15.04Z" transform="translate(-297.7 -7.52)"/><path d="M330.32,13.76a.86.86,0,0,0,.08.4.346.346,0,0,0,.24.12h.16c.08,0,.12,0,.16-.04v.68a1.336,1.336,0,0,1-.6.12.845.845,0,0,1-.64-.24,1.071,1.071,0,0,1-.28-.68h-.04a1.4,1.4,0,0,1-.68.68,2.47,2.47,0,0,1-1,.2,1.949,1.949,0,0,1-1-.24,2.192,2.192,0,0,1-.72-.64,3.025,3.025,0,0,1-.44-.88,4.348,4.348,0,0,1-.16-1.04,2.983,2.983,0,0,1,.16-1.04,2.242,2.242,0,0,1,1.2-1.48,2.381,2.381,0,0,1,1.08-.24,1.713,1.713,0,0,1,.88.24,1.851,1.851,0,0,1,.64.6h.04V9.56h.88v4.2Zm-3.92-1.44a3.522,3.522,0,0,0,.08.68,1.838,1.838,0,0,0,.28.64,1.271,1.271,0,0,0,.48.44,1.226,1.226,0,0,0,.68.16,1.523,1.523,0,0,0,.76-.16,1.706,1.706,0,0,0,.48-.44,3.1,3.1,0,0,0,.28-.64,4.407,4.407,0,0,0,.08-.72,4.9,4.9,0,0,0-.08-.76,3.1,3.1,0,0,0-.28-.64,1.272,1.272,0,0,0-.48-.44,1.226,1.226,0,0,0-.68-.16,1.423,1.423,0,0,0-.76.2,1.379,1.379,0,0,0-.48.48,1.712,1.712,0,0,0-.24.68A1.293,1.293,0,0,0,326.4,12.32ZM328,7.4h1.12l-.76,1.48h-.68Z" transform="translate(-304.12 -7.4)"/><path d="M341.14,15.4a3.7,3.7,0,0,1,.16-1.16,2.64,2.64,0,0,1,.48-.88,1.8,1.8,0,0,1,.76-.56,2.621,2.621,0,0,1,1-.2,2.159,2.159,0,0,1,1.08.24,2.242,2.242,0,0,1,1.2,1.48,4.349,4.349,0,0,1,.16,1.04,4.536,4.536,0,0,1-.12,1,2.957,2.957,0,0,1-.4.88,2.242,2.242,0,0,1-.72.64,2.159,2.159,0,0,1-1.08.24,1.5,1.5,0,0,1-.4-.04c-.16-.04-.28-.08-.44-.12-.16-.08-.28-.16-.44-.24a3.609,3.609,0,0,1-.36-.4h-.04v2.72h-.88V15.4Zm3.96-.08a4.4,4.4,0,0,0-.08-.72,1.839,1.839,0,0,0-.28-.64,1.272,1.272,0,0,0-.48-.44,1.369,1.369,0,0,0-.72-.16,1.314,1.314,0,0,0-1.12.52,2.326,2.326,0,0,0-.4,1.48,4.9,4.9,0,0,0,.08.76,1.839,1.839,0,0,0,.28.64,1.272,1.272,0,0,0,.48.44,1.37,1.37,0,0,0,.72.16,1.091,1.091,0,0,0,.64-.16,1.825,1.825,0,0,0,.48-.48,1.3,1.3,0,0,0,.28-.68A1.937,1.937,0,0,0,345.1,15.32Z" transform="translate(-313.54 -10.52)"/><path d="M354.4,13.76V13h4.56v.76h-1.92v3.36c0,.24.04.4.16.44.08.08.2.08.36.08a1.233,1.233,0,0,0,.4-.04v.68a1.938,1.938,0,0,1-.72.12,1.083,1.083,0,0,1-.76-.24.977.977,0,0,1-.28-.8v-3.6Z" transform="translate(-321.52 -10.76)"/><path d="M367.5,12.72h.8v.84h.04a1.817,1.817,0,0,1,1.72-.96,1.925,1.925,0,0,1,.88.16,1.5,1.5,0,0,1,.88,1,4.5,4.5,0,0,1,.08.8v5.52h-.88v-5.6a.941.941,0,0,0-.28-.76,1.031,1.031,0,0,0-.8-.28,1.724,1.724,0,0,0-.68.12,1.092,1.092,0,0,0-.48.36,1.318,1.318,0,0,0-.28.52,1.873,1.873,0,0,0-.08.68v3h-.88v-5.4Z" transform="translate(-329.38 -10.52)"/><path d="M380.2,13.76V13h4.56v.76h-1.92v3.36c0,.24.04.4.16.44.08.08.2.08.36.08a1.233,1.233,0,0,0,.4-.04v.68a1.937,1.937,0,0,1-.72.12,1.083,1.083,0,0,1-.76-.24.977.977,0,0,1-.28-.8v-3.6Z" transform="translate(-337 -10.76)"/><path d="M393.4,12.72h.8v.84h.04a1.816,1.816,0,0,1,1.72-.96,1.925,1.925,0,0,1,.88.16,1.5,1.5,0,0,1,.88,1,4.5,4.5,0,0,1,.08.8v5.52h-.88v-5.6a.941.941,0,0,0-.28-.76,1.031,1.031,0,0,0-.8-.28,1.724,1.724,0,0,0-.68.12,1.092,1.092,0,0,0-.48.36,1.317,1.317,0,0,0-.28.52,1.872,1.872,0,0,0-.08.68v3h-.88v-5.4Z" transform="translate(-344.92 -10.52)"/><path d="M414.2,15.22v-.8l2.84-3L414.32,8.7V7.9h5.16v.8h-3.92l2.64,2.64v.04l-2.76,3h4.24v.8H414.2Z" transform="translate(-357.4 -7.7)"/><path d="M431.18,12.9v3.36a2.783,2.783,0,0,0,.08.64.68.68,0,0,0,.24.4,1.623,1.623,0,0,0,.36.2,2.027,2.027,0,0,0,.52.08,1.3,1.3,0,0,0,1.12-.56,2.962,2.962,0,0,0,.36-1.6,2.829,2.829,0,0,0-.04-.56c-.04-.2-.08-.44-.12-.64a3.928,3.928,0,0,0-.2-.64,2.756,2.756,0,0,0-.28-.6h.96a4.046,4.046,0,0,1,.28.6,3.747,3.747,0,0,1,.16.64,3.5,3.5,0,0,1,.08.64,2.833,2.833,0,0,1,.04.56,3.791,3.791,0,0,1-.16,1.2,2.193,2.193,0,0,1-.44.92,2.619,2.619,0,0,1-.72.6,2.675,2.675,0,0,1-1.04.2,2.5,2.5,0,0,1-1.56-.44,1.713,1.713,0,0,1-.52-1.44V12.9Z" transform="translate(-367.06 -10.7)"/><path d="M447.22,12.9a13.682,13.682,0,0,1-.72,2.72,21.477,21.477,0,0,1-1.16,2.6h-.92l-1.92-5.28h.96l1.44,4.4c.16-.32.28-.64.44-1a9.249,9.249,0,0,0,.4-1.12,9.827,9.827,0,0,0,.32-1.16c.08-.4.16-.76.24-1.12h.92Z" transform="translate(-374.38 -10.7)"/><path d="M458.78,14.1a.782.782,0,0,0-.36-.6,1.471,1.471,0,0,0-.8-.2,1.752,1.752,0,0,0-.84.16.658.658,0,0,0-.32.6.671.671,0,0,0,.24.56.964.964,0,0,0,.6.16h.84v.76h-.8a1.2,1.2,0,0,0-.8.24.845.845,0,0,0-.24.64.808.808,0,0,0,.36.72,1.714,1.714,0,0,0,.96.2,1.948,1.948,0,0,0,.48-.04,1.2,1.2,0,0,0,.4-.16,1.078,1.078,0,0,0,.28-.32,1.6,1.6,0,0,0,.16-.52h.88a1.942,1.942,0,0,1-.76,1.4,2.848,2.848,0,0,1-1.64.4,4.9,4.9,0,0,1-.76-.08,2.037,2.037,0,0,1-.68-.28,1.379,1.379,0,0,1-.48-.48,1.423,1.423,0,0,1-.2-.76,1.193,1.193,0,0,1,.96-1.24v-.04a.974.974,0,0,1-.56-.4,1.279,1.279,0,0,1-.2-.72,1.314,1.314,0,0,1,.16-.68,1.7,1.7,0,0,1,.44-.48,3.19,3.19,0,0,1,.64-.32,2.579,2.579,0,0,1,.8-.12,2.509,2.509,0,0,1,1.4.36,1.615,1.615,0,0,1,.64,1.2h-.8Z" transform="translate(-382.06 -10.46)"/><path d="M467.1,13.76V13h4.56v.76h-1.92v3.36c0,.24.04.4.16.44.08.08.2.08.36.08a1.234,1.234,0,0,0,.4-.04v.68a1.938,1.938,0,0,1-.72.12,1.083,1.083,0,0,1-.76-.24.978.978,0,0,1-.28-.8v-3.6Z" transform="translate(-389.14 -10.76)"/><path d="M484.32,16.82a.86.86,0,0,0,.08.4.346.346,0,0,0,.24.12h.16c.08,0,.12,0,.16-.04v.68a1.336,1.336,0,0,1-.6.12.845.845,0,0,1-.64-.24,1.07,1.07,0,0,1-.28-.68h-.04a1.4,1.4,0,0,1-.68.68,2.47,2.47,0,0,1-1,.2,1.949,1.949,0,0,1-1-.24,2.192,2.192,0,0,1-.72-.64,3.024,3.024,0,0,1-.44-.88,4.346,4.346,0,0,1-.16-1.04,2.981,2.981,0,0,1,.16-1.04,2.241,2.241,0,0,1,1.2-1.48,2.382,2.382,0,0,1,1.08-.24,1.713,1.713,0,0,1,.88.24,1.851,1.851,0,0,1,.64.6h.04v-.72h.88v4.2Zm-3.92-1.44a3.522,3.522,0,0,0,.08.68,1.837,1.837,0,0,0,.28.64,1.271,1.271,0,0,0,.48.44,1.226,1.226,0,0,0,.68.16,1.523,1.523,0,0,0,.76-.16,1.7,1.7,0,0,0,.48-.44,3.1,3.1,0,0,0,.28-.64,4.41,4.41,0,0,0,.08-.72,4.9,4.9,0,0,0-.08-.76,3.1,3.1,0,0,0-.28-.64,1.271,1.271,0,0,0-.48-.44,1.226,1.226,0,0,0-.68-.16,1.423,1.423,0,0,0-.76.2,1.378,1.378,0,0,0-.48.48,1.713,1.713,0,0,0-.24.68A1.294,1.294,0,0,0,480.4,15.38Z" transform="translate(-396.52 -10.46)"/><path d="M496.28,12.9v4.16c0,.36.12.52.36.52h.16a1.728,1.728,0,0,1,.2-.04v.68c-.12.04-.2.08-.32.12a1.108,1.108,0,0,1-.36.04.879.879,0,0,1-.68-.24,1.125,1.125,0,0,1-.24-.8V12.9Z" transform="translate(-406.12 -10.7)"/><path d="M501.24,15.4a3.7,3.7,0,0,1,.16-1.16,2.639,2.639,0,0,1,.48-.88,1.8,1.8,0,0,1,.76-.56,2.621,2.621,0,0,1,1-.2,2.159,2.159,0,0,1,1.08.24,2.3,2.3,0,0,1,.76.6,2.279,2.279,0,0,1,.44.88,4.346,4.346,0,0,1,.16,1.04,4.534,4.534,0,0,1-.12,1,2.956,2.956,0,0,1-.4.88,2.192,2.192,0,0,1-.72.64,2.159,2.159,0,0,1-1.08.24,1.5,1.5,0,0,1-.4-.04c-.16-.04-.28-.08-.44-.12-.16-.08-.28-.16-.44-.24a1.722,1.722,0,0,1-.36-.4h-.04v2.72h-.88V15.4Zm3.92-.08a4.4,4.4,0,0,0-.08-.72,1.837,1.837,0,0,0-.28-.64,1.271,1.271,0,0,0-.48-.44,1.37,1.37,0,0,0-.72-.16,1.314,1.314,0,0,0-1.12.52,2.326,2.326,0,0,0-.4,1.48,4.9,4.9,0,0,0,.08.76,1.837,1.837,0,0,0,.28.64,1.271,1.271,0,0,0,.48.44,1.369,1.369,0,0,0,.72.16,1.09,1.09,0,0,0,.64-.16,1.824,1.824,0,0,0,.48-.48,1.3,1.3,0,0,0,.28-.68A1.37,1.37,0,0,0,505.16,15.32Z" transform="translate(-409.6 -10.52)"/><path d="M516.98,12.9v4.16c0,.36.12.52.36.52h.16a1.728,1.728,0,0,1,.2-.04v.68c-.12.04-.2.08-.32.12a1.108,1.108,0,0,1-.36.04.879.879,0,0,1-.68-.24,1.126,1.126,0,0,1-.24-.8V12.9Z" transform="translate(-418.54 -10.7)"/><path d="M521.4,15.58a3.055,3.055,0,0,1,.2-1.08,2.384,2.384,0,0,1,.56-.84,2.77,2.77,0,0,1,.88-.56,3.345,3.345,0,0,1,1.16-.2h2.64v.76H525.6a1.7,1.7,0,0,1,.6.8,3.431,3.431,0,0,1,.2,1.08,2.689,2.689,0,0,1-.16.96,2.28,2.28,0,0,1-.44.88,2.322,2.322,0,0,1-.76.64,2.435,2.435,0,0,1-1.12.24,3.053,3.053,0,0,1-1.08-.2,2.343,2.343,0,0,1-.8-.6,3.1,3.1,0,0,1-.48-.88A2.625,2.625,0,0,1,521.4,15.58Zm.92,0a2.926,2.926,0,0,0,.12.88,2.032,2.032,0,0,0,.36.64,1.523,1.523,0,0,0,.52.36,1.6,1.6,0,0,0,.6.12,1.315,1.315,0,0,0,.68-.16,1.176,1.176,0,0,0,.48-.4,1.563,1.563,0,0,0,.28-.64,2.593,2.593,0,0,0,.08-.8,3.178,3.178,0,0,0-.2-1.16,1.68,1.68,0,0,0-.52-.72h-.52a2.329,2.329,0,0,0-.76.12,1.506,1.506,0,0,0-.6.36,1.582,1.582,0,0,0-.4.6A2.245,2.245,0,0,0,522.32,15.58Z" transform="translate(-421.72 -10.7)"/><path d="M535,13.76V13h4.56v.76h-1.92v3.36c0,.24.04.4.16.44.08.08.2.08.36.08a1.233,1.233,0,0,0,.4-.04v.68a1.937,1.937,0,0,1-.72.12,1.083,1.083,0,0,1-.76-.24.977.977,0,0,1-.28-.8v-3.6Z" transform="translate(-429.88 -10.76)"/><path d="M549.08,12.9v4.16c0,.36.12.52.36.52h.16a1.73,1.73,0,0,1,.2-.04v.68c-.12.04-.2.08-.32.12a1.107,1.107,0,0,1-.36.04.879.879,0,0,1-.68-.24,1.126,1.126,0,0,1-.24-.8V12.9Z" transform="translate(-437.8 -10.7)"/><path d="M554.2,12.9h.88v2.44l2.4-2.44h1.16l-2.12,2.04,2.28,3.24h-1.08l-1.84-2.64-.8.76v1.88h-.88Z" transform="translate(-441.4 -10.7)"/><path d="M567.4,9.6h.8v.84h.04a1.816,1.816,0,0,1,1.72-.96,1.925,1.925,0,0,1,.88.16,1.5,1.5,0,0,1,.88,1,4.5,4.5,0,0,1,.08.8v5.52h-.88v-5.6a.941.941,0,0,0-.28-.76,1.031,1.031,0,0,0-.8-.28,1.724,1.724,0,0,0-.68.12,1.092,1.092,0,0,0-.48.36,1.32,1.32,0,0,0-.28.52,1.872,1.872,0,0,0-.08.68v3h-.88V9.6Zm2.28-2.2h1.12l-.76,1.48h-.68Z" transform="translate(-449.32 -7.4)"/><path d="M589.1,7.9h5.04v.8h-4.08v2.32h3.8v.8h-3.8v2.52h4.12v.8H589.1Z" transform="translate(-462.34 -7.7)"/><path d="M607.3,10.5a3.345,3.345,0,0,1,1.16.2,2.912,2.912,0,0,1,.92.52,2.85,2.85,0,0,1,.6.88,2.619,2.619,0,0,1,.2,1.16,2.981,2.981,0,0,1-.24,1.24,2.27,2.27,0,0,1-.6.84,2.91,2.91,0,0,1-.92.52,5.044,5.044,0,0,1-1.12.2v1.92h-.88V16.06a3.716,3.716,0,0,1-1.16-.2,3.345,3.345,0,0,1-.92-.48,2.042,2.042,0,0,1-.6-.84,2.983,2.983,0,0,1-.24-1.24,3.523,3.523,0,0,1,.2-1.16,2.3,2.3,0,0,1,.6-.88,2.976,2.976,0,0,1,.92-.56,2.839,2.839,0,0,1,1.16-.2V9.1h.88v1.4Zm-.88.76a2.66,2.66,0,0,0-.84.12,2.151,2.151,0,0,0-.64.4,2.5,2.5,0,0,0-.4.64,2.58,2.58,0,0,0-.12.8,1.925,1.925,0,0,0,.16.88,1.743,1.743,0,0,0,.4.64,1.669,1.669,0,0,0,.64.36,2.579,2.579,0,0,0,.8.12Zm.88,4a2.579,2.579,0,0,0,.8-.12,2.027,2.027,0,0,0,.64-.36,1.741,1.741,0,0,0,.4-.64,2.877,2.877,0,0,0,.16-.88,2.577,2.577,0,0,0-.12-.8,1.741,1.741,0,0,0-.4-.64,1.465,1.465,0,0,0-.64-.4,2.66,2.66,0,0,0-.84-.12v3.96Z" transform="translate(-470.98 -8.42)"/><path d="M622.8,12.72h.8v.84h.04a1.816,1.816,0,0,1,1.72-.96,1.926,1.926,0,0,1,.88.16,1.5,1.5,0,0,1,.88,1,4.493,4.493,0,0,1,.08.8v5.52h-.88v-5.6a.941.941,0,0,0-.28-.76,1.031,1.031,0,0,0-.8-.28,1.724,1.724,0,0,0-.68.12,1.093,1.093,0,0,0-.48.36,1.317,1.317,0,0,0-.28.52,1.872,1.872,0,0,0-.08.68v3h-.88v-5.4Z" transform="translate(-482.56 -10.52)"/><path d="M641.46,18.16h-.8v-.84h-.04a2.064,2.064,0,0,1-.72.72,1.713,1.713,0,0,1-.88.24,2.361,2.361,0,0,1-.56-.08,1.651,1.651,0,0,1-.44-.28h-.04V20.2h-.88V12.84h.88v3.6a.941.941,0,0,0,.28.76,1,1,0,0,0,.76.28,1.869,1.869,0,0,0,.68-.12,1.092,1.092,0,0,0,.48-.36,1.318,1.318,0,0,0,.28-.52,1.871,1.871,0,0,0,.08-.68v-3h.88v5.36Z" transform="translate(-491.14 -10.64)"/><path d="M653.78,14.1a.782.782,0,0,0-.36-.6,1.472,1.472,0,0,0-.8-.2,1.751,1.751,0,0,0-.84.16.658.658,0,0,0-.32.6.671.671,0,0,0,.24.56.964.964,0,0,0,.6.16h.84v.76h-.8a1.194,1.194,0,0,0-.8.24.844.844,0,0,0-.24.64.807.807,0,0,0,.36.72,1.714,1.714,0,0,0,.96.2,1.948,1.948,0,0,0,.48-.04,1.2,1.2,0,0,0,.4-.16,1.079,1.079,0,0,0,.28-.32,1,1,0,0,0,.16-.52h.88a1.942,1.942,0,0,1-.76,1.4,2.848,2.848,0,0,1-1.64.4,4.9,4.9,0,0,1-.76-.08,2.039,2.039,0,0,1-.68-.28,1.381,1.381,0,0,1-.48-.48,1.423,1.423,0,0,1-.2-.76,1.193,1.193,0,0,1,.96-1.24v-.04a.973.973,0,0,1-.56-.4,1.279,1.279,0,0,1-.2-.72,1.314,1.314,0,0,1,.16-.68,1.706,1.706,0,0,1,.44-.48,3.193,3.193,0,0,1,.64-.32,2.579,2.579,0,0,1,.8-.12,2.51,2.51,0,0,1,1.4.36,1.616,1.616,0,0,1,.64,1.2h-.8Z" transform="translate(-499.06 -10.46)"/><path d="M663.54,15.4a3.7,3.7,0,0,1,.16-1.16,2.642,2.642,0,0,1,.48-.88,1.8,1.8,0,0,1,.76-.56,2.62,2.62,0,0,1,1-.2,2.159,2.159,0,0,1,1.08.24,2.242,2.242,0,0,1,1.2,1.48,4.351,4.351,0,0,1,.16,1.04,4.536,4.536,0,0,1-.12,1,2.961,2.961,0,0,1-.4.88,2.192,2.192,0,0,1-.72.64,2.159,2.159,0,0,1-1.08.24,1.5,1.5,0,0,1-.4-.04c-.16-.04-.28-.08-.44-.12a2.386,2.386,0,0,1-.44-.24,3.606,3.606,0,0,1-.36-.4h-.04v2.72h-.88V15.4Zm3.92-.08a4.4,4.4,0,0,0-.08-.72,1.838,1.838,0,0,0-.28-.64,1.271,1.271,0,0,0-.48-.44,1.369,1.369,0,0,0-.72-.16,1.314,1.314,0,0,0-1.12.52,2.326,2.326,0,0,0-.4,1.48,4.9,4.9,0,0,0,.08.76,1.84,1.84,0,0,0,.28.64,1.272,1.272,0,0,0,.48.44,1.37,1.37,0,0,0,.72.16,1.091,1.091,0,0,0,.64-.16,1.823,1.823,0,0,0,.48-.48,1.741,1.741,0,0,0,.28-.68A1.938,1.938,0,0,0,667.46,15.32Z" transform="translate(-506.98 -10.52)"/><path d="M679.28,9.6v4.16c0,.36.12.52.36.52h.16a1.734,1.734,0,0,1,.2-.04v.68c-.12.04-.2.08-.32.12a1.108,1.108,0,0,1-.36.04.88.88,0,0,1-.68-.24,1.126,1.126,0,0,1-.24-.8V9.6Zm-.44-2.2h1.12l-.76,1.48h-.68Z" transform="translate(-515.92 -7.4)"/><path d="M683.6,12.36a2.36,2.36,0,0,1,1.88-2.44,2.916,2.916,0,0,1-.52-.36,2.585,2.585,0,0,1-.32-.36,2.362,2.362,0,0,1-.16-.32.993.993,0,0,1-.04-.32.894.894,0,0,1,.12-.4,2.2,2.2,0,0,1,.28-.36,1.461,1.461,0,0,1,.56-.28,2.75,2.75,0,0,1,.88-.12,6.734,6.734,0,0,1,.8.08,2.124,2.124,0,0,1,.76.24v.76c-.12-.04-.24-.08-.4-.12s-.28-.08-.44-.12-.28-.04-.4-.08c-.12,0-.24-.04-.32-.04a1.523,1.523,0,0,0-.64.12.435.435,0,0,0-.28.4c0,.12.08.24.28.4a4.425,4.425,0,0,0,.72.48l.36.24a7.086,7.086,0,0,1,.68.48,3.983,3.983,0,0,1,.6.56,2.1,2.1,0,0,1,.4.72,2.154,2.154,0,0,1,.16.88,4.362,4.362,0,0,1-.12,1.04,2.117,2.117,0,0,1-.44.84,1.8,1.8,0,0,1-.76.56,2.369,2.369,0,0,1-1.08.2,3.113,3.113,0,0,1-1.12-.2,2.231,2.231,0,0,1-.8-.56,2.876,2.876,0,0,1-.48-.84A5.031,5.031,0,0,1,683.6,12.36Zm.96,0A2.135,2.135,0,0,0,685,13.8a1.479,1.479,0,0,0,1.16.48,1.315,1.315,0,0,0,1.08-.48,2.087,2.087,0,0,0,.4-1.4,2.012,2.012,0,0,0-.32-1.08,3.274,3.274,0,0,0-1.16-.96,1.856,1.856,0,0,0-1.24.64A2.286,2.286,0,0,0,684.56,12.36Z" transform="translate(-519.04 -7.4)"/><path d="M702.62,16.82a.86.86,0,0,0,.08.4.346.346,0,0,0,.24.12h.16c.08,0,.12,0,.16-.04v.68a1.336,1.336,0,0,1-.6.12.844.844,0,0,1-.64-.24,1.071,1.071,0,0,1-.28-.68h-.04a1.4,1.4,0,0,1-.68.68,2.47,2.47,0,0,1-1,.2,1.949,1.949,0,0,1-1-.24,2.193,2.193,0,0,1-.72-.64,3.024,3.024,0,0,1-.44-.88,4.345,4.345,0,0,1-.16-1.04,2.983,2.983,0,0,1,.16-1.04,2.242,2.242,0,0,1,1.2-1.48,2.382,2.382,0,0,1,1.08-.24,1.713,1.713,0,0,1,.88.24,1.851,1.851,0,0,1,.64.6h.04v-.72h.88v4.2Zm-3.96-1.44a3.53,3.53,0,0,0,.08.68,1.843,1.843,0,0,0,.28.64,1.272,1.272,0,0,0,.48.44,1.226,1.226,0,0,0,.68.16,1.522,1.522,0,0,0,.76-.16,1.708,1.708,0,0,0,.48-.44,3.1,3.1,0,0,0,.28-.64,4.41,4.41,0,0,0,.08-.72,4.889,4.889,0,0,0-.08-.76,3.1,3.1,0,0,0-.28-.64,1.273,1.273,0,0,0-.48-.44,1.225,1.225,0,0,0-.68-.16,1.424,1.424,0,0,0-.76.2,1.379,1.379,0,0,0-.48.48,1.718,1.718,0,0,0-.24.68A1.868,1.868,0,0,0,698.66,15.38Z" transform="translate(-527.5 -10.46)"/></g></g></svg>