<!-- Created with Inkscape (http://www.inkscape.org/) -->
<svg xmlns:rdf="http://www.w3.org/1999/02/22-rdf-syntax-ns#" xmlns="http://www.w3.org/2000/svg" height="300" width="627.05" version="1.1" xmlns:cc="http://creativecommons.org/ns#" xmlns:dc="http://purl.org/dc/elements/1.1/">
	<metadata>
		<rdf:RDF>
			<cc:Work rdf:about="">
				<dc:format>image/svg+xml</dc:format>
				<dc:type rdf:resource="http://purl.org/dc/dcmitype/StillImage"/>
				<dc:title/>
			</cc:Work>
		</rdf:RDF>
	</metadata>
<rect fill-rule="nonzero" rx="149.94" ry="155.93" height="300" width="627.05" y="0" x="0" fill="#171c6e"/>
	<path d="m473.37,105.15,35.04,0,0-36.04-113.12,0,0,36.04,35.03,0,0,128.13,43.05,0zm-212.22-36.04,0,164.17,43.04,0,0-53.8,20.28-0.54c25.15-0.67,32.47-2.46,43.35-10.67,11.73-8.86,18.49-25.31,18.46-44.91-0.1-27.94-15.77-47.85-41.63-52.81-5.82-1.11-16.51-1.44-45.55-1.44zm43.04,34.88,12.27,0.32c14.79,0.4,18.89,2,22.74,8.91,3.33,5.98,3.35,15.83,0.1,21.71-3.82,6.79-8.4,8.62-22.8,9.1l-12.27,0.41v-40.45zm-72.07,93.25-50.05,0,0-29.03,48.1,0,0.1-35.53-48.18,0.1,0-27.62,50.05,0,0-36.04-93.1,0,0,164.17,93.1,0z" fill="#FFF"/>
</svg>

